<svg xmlns="http://www.w3.org/2000/svg" viewBox="0 0 512 512">
  <!-- Background -->
  <rect width="512" height="512" rx="112" fill="#0F0E1F"/>
  <!-- Orange square badge -->
  <rect x="156" y="156" width="200" height="200" rx="36" fill="#FF5C3E"/>
  <!-- Barbell icon (white) centered in badge -->
  <path d="M215 256l82-82-14-14-68 68-68-68-14 14 82 82zm0 0l82 82-14 14-68-68-68 68-14-14 82-82z"
        fill="white" transform="translate(41 0) scale(0.85)" style="transform-origin: 256px 256px"/>
  <!-- Simplified barbell: horizontal bar + weights -->
  <rect x="196" y="247" width="120" height="18" rx="9" fill="white"/>
  <rect x="186" y="230" width="18" height="52" rx="7" fill="white"/>
  <rect x="308" y="230" width="18" height="52" rx="7" fill="white"/>
  <rect x="170" y="238" width="18" height="36" rx="6" fill="white"/>
  <rect x="324" y="238" width="18" height="36" rx="6" fill="white"/>
</svg>
